<svg xmlns="http://www.w3.org/2000/svg" viewBox="0 0 453.17 103.49"><defs><style>.cls-1{fill:#fbbb2c;}</style></defs><g id="Layer_2" data-name="Layer 2"><g id="Graphics"><path id="Wordmark_-_Yellow" data-name="Wordmark - Yellow" class="cls-1" d="M61.54,54c10.84,2.09,16.07,13.45,16.07,20.9,0,16.46-13.46,27.18-34.23,27.18H0V10.6H39.72c19.73,0,34,9.93,34,26.39C73.69,42.87,70.94,50.06,61.54,54Zm-26-6.14c8.23,0,12-3.53,12-7.58,0-5-3.92-8.23-10.72-8.23h-9.4V47.84ZM27.44,64V80H41.81c6.79,0,9.41-3.92,9.41-7.71S47.56,64,39.46,64Zm289.11-.4c0-5.35-1.05-10.71-6.28-10.71s-6.4,5.36-6.4,10.71v38.42H277V63.64c0-5.35-1-10.71-6.27-10.71s-6.41,5.36-6.41,10.71v38.42H237.37V33.33h26.91V42c2.36-6.14,8.5-10.06,15.81-10.06,8.89,0,14.64,4.18,18.16,9.8,7.19-8.76,13.72-9.8,21-9.8,19.07,0,24.17,18.81,24.17,30.05v40.11H316.55ZM376.5,31.9H349.59v70.15H376.5Zm49.76,32.53c0-5.36-1.18-11.63-8.1-11.63s-8,6.27-8,11.63v37.63H383.27V33.33h26.92v8.5C414,35.69,420,31.9,429.26,31.9c21.3,0,23.91,18.68,23.91,29.92v40.24H426.26ZM363.05,0A13.44,13.44,0,1,0,376.5,13.44,13.45,13.45,0,0,0,363.05,0ZM118.21,31.9C96.18,31.9,81,47.84,81,67.7s15.18,35.79,37.21,35.79,37.22-15.94,37.22-35.79S140.25,31.9,118.21,31.9Zm10.3,35.81a10.3,10.3,0,1,1-10.3-10.3A10.3,10.3,0,0,1,128.51,67.71ZM196,31.9c-22,0-37.21,15.94-37.21,35.8S174,103.49,196,103.49s37.21-15.94,37.21-35.79S218.06,31.9,196,31.9Zm10.3,35.81A10.3,10.3,0,1,1,196,57.41,10.3,10.3,0,0,1,206.33,67.71Z"/></g></g></svg>